# xmcd
#
# Track frame offsets: 
#        150
#        21868
#        42933
#        66778
#        96744
#        112966
#        123920
#        141856
#        154769
#        177097
#        200394
#        216999
#        227395
#        247617
#        265313
#        275978
#        293280
#        310960
#
# Disc length: 4414 seconds
#
# Revision: 0
# Processed by: cddbd v1.5.2PL0 Copyright (c) Steve Scherf et al.
# Submitted via: ExactAudioCopy v0.99pb3
#
DISCID=01113c12
DTITLE=Big Joe Duskin - Live at Quai Du Blues
DYEAR=1994
DGENRE=Blues
TTITLE0=Oodle Adle
TTITLE1=Pinetops Boogie Woogie
TTITLE2=I Beg Nobody and I Want Nobody Begging Me
TTITLE3=Ida Bea
TTITLE4=Yancey Special
TTITLE5=Cow Cow Boogie
TTITLE6=Dustys Jump Boogie
TTITLE7=The Boogie Rocks
TTITLE8=Down on my Knees Begging
TTITLE9=Boogie Woogie on St-Louis Blues
TTITLE10=Key to the Highway
TTITLE11=6th Avenue Express
TTITLE12=My Little Kangaroo Girl
TTITLE13=Mean and Evil Woman
TTITLE14=Big Joe Duskin Boogie
TTITLE15=Well Well Baby Blues
TTITLE16=Call my Job
TTITLE17=For O'clock in the Morning
EXTD=
EXTT0=
EXTT1=
EXTT2=
EXTT3=
EXTT4=
EXTT5=
EXTT6=
EXTT7=
EXTT8=
EXTT9=
EXTT10=
EXTT11=
EXTT12=
EXTT13=
EXTT14=
EXTT15=
EXTT16=
EXTT17=
PLAYORDER=
